<svg width="14" height="14" viewBox="0 0 14 14" fill="none" xmlns="http://www.w3.org/2000/svg">
<path fill-rule="evenodd" clip-rule="evenodd" d="M0.993134 2.24897C1.20402 1.89912 2.36663 0.629137 3.1951 0.667476C3.44296 0.688699 3.66206 0.837948 3.84008 1.01184H3.84077C4.24884 1.41167 5.41967 2.92059 5.4854 3.23826C5.64767 4.01736 4.71854 4.46648 5.00269 5.25175C5.72709 7.02425 6.97529 8.27233 8.74864 8.99598C9.5333 9.28079 9.98245 8.35243 10.7616 8.51401C11.0793 8.58041 12.5891 9.75045 12.9882 10.1592V10.1592C13.1615 10.3365 13.3121 10.5563 13.3326 10.8041C13.3635 11.677 12.0146 12.8552 11.7517 13.0059C11.1314 13.4502 10.3221 13.442 9.33542 12.9833C6.58227 11.8379 2.18244 7.52129 1.01573 4.66434C0.56931 3.68327 0.539184 2.86856 0.993134 2.24897Z" stroke="white" stroke-linecap="round" stroke-linejoin="round"/>
<path d="M8.70996 0.833252C11.178 1.10725 13.1266 3.05392 13.404 5.52125" stroke="white" stroke-linecap="round" stroke-linejoin="round"/>
<path d="M8.70996 3.19531C9.88996 3.42531 10.812 4.34731 11.042 5.52731" stroke="white" stroke-linecap="round" stroke-linejoin="round"/>
</svg>
